<?xml version="1.0" encoding="UTF-8"?>
<svg version="1.1" xmlns="http://www.w3.org/2000/svg" width="250" height="200">
<path d="M0 0 C82.5 0 165 0 250 0 C250 66 250 132 250 200 C167.5 200 85 200 0 200 C0 134 0 68 0 0 Z " fill="#FEFEFE" transform="translate(0,0)"/>
<path d="M0 0 C0.72054565 -0.00004028 1.44109131 -0.00008057 2.18347168 -0.00012207 C3.70996812 0.0052329 5.23646387 0.02281537 6.76269531 0.05175781 C9.05883716 0.09312107 11.35199082 0.09286345 13.6484375 0.0859375 C23.86046725 0.13019639 35.93996098 0.18797557 44.25390625 6.95703125 C48.05670074 11.60242744 48.91720688 17.56656144 48.46875 23.40625 C47.64745381 28.36897594 45.93464312 31.35871686 42.21875 34.78125 C39.72088644 36.50596532 37.455093 37.61271811 34.59375 38.59375 C35.13 38.861875 35.66625 39.13 36.21875 39.40625 C37.394375 39.9940625 37.394375 39.9940625 38.59375 40.59375 C39.5425 41.00625 40.49125 41.41875 41.46875 41.84375 C45.46476542 44.08151863 49.66512326 46.94294276 51.23828125 51.43359375 C52.53492519 59.31319926 52.27528413 66.37252954 48.26953125 73.40234375 C43.39257968 79.77989581 36.16132557 82.63130352 28.59375 84.59375 C25.45700388 84.96197509 22.37395172 84.97035937 19.21875 84.921875 C18.36821045 84.92000183 17.5176709 84.91812866 16.64135742 84.91619873 C14.86324072 84.909531 13.08513734 84.89572346 11.30712891 84.875 C8.57310508 84.84351223 5.83965694 84.83398921 3.10546875 84.828125 C1.37238873 84.8189669 -0.36068541 84.80859497 -2.09375 84.796875 C-2.91343262 84.79262512 -3.73311523 84.78837524 -4.57763672 84.78399658 C-10.28900238 84.71099762 -10.28900238 84.71099762 -11.40625 83.59375 C-11.52248482 81.18662262 -11.57423148 78.80777973 -11.58325195 76.39941406 C-11.58982315 75.646521 -11.59639435 74.89362793 -11.60316467 74.11791992 C-11.62294728 71.61507071 -11.63457248 69.11228169 -11.64453125 66.609375 C-11.64860678 65.75599297 -11.6526823 64.90261093 -11.65688133 64.02336884 C-11.6777653 59.50483947 -11.69205573 54.98634067 -11.70141602 50.46777344 C-11.71247297 45.79910223 -11.74685769 41.13090865 -11.78658772 36.46240616 C-11.81273499 32.8747265 -11.82110626 29.28716079 -11.82469749 25.69939423 C-11.82956999 23.97860242 -11.84120288 22.25781591 -11.85973549 20.537117 C-11.8840829 18.12624874 -11.88317022 15.71661763 -11.8762207 13.30566406 C-11.88903076 12.59585388 -11.90184082 11.8860437 -11.91503906 11.15472412 C-11.87809635 7.63415612 -11.45410646 5.67124233 -9.58842468 2.65020752 C-6.57795528 -0.18682587 -3.93156186 -0.09404324 0 0 Z " fill="#EC1F27" transform="translate(94.40625,81.40625)"/>
<path d="M0 0 C4.20751286 2.63205401 7.11095712 3.2620232 12.0546875 2.77734375 C14.66516551 1.47210475 14.73535173 0.41907801 15.6796875 -2.28515625 C15.94007813 -3.01863281 16.20046875 -3.75210937 16.46875 -4.5078125 C16.66210938 -5.07371094 16.85546875 -5.63960937 17.0546875 -6.22265625 C19.6946875 -6.22265625 22.3346875 -6.22265625 25.0546875 -6.22265625 C24.72124954 0.112665 23.53922432 4.17094451 19.0546875 8.77734375 C14.95931143 11.72982417 10.9562396 12.51601838 5.98828125 12.41015625 C0.79344823 11.28956644 -3.48180048 8.42546632 -7.94140625 5.625 C-12.41388724 2.87404615 -15.72307885 2.31107289 -20.9453125 2.77734375 C-23.82168963 5.36608317 -24.42297103 8.01648516 -24.9453125 11.77734375 C-27.5853125 11.77734375 -30.2253125 11.77734375 -32.9453125 11.77734375 C-32.4783085 5.00578576 -31.17154229 0.7011145 -25.9453125 -4.03515625 C-16.77171518 -9.48197966 -8.12531066 -5.10687196 0 0 Z " fill="#ED2B32" transform="translate(128.9453125,29.22265625)"/>
<path d="M0 0 C4.21108482 2.41692544 7.6123406 3.04930949 12.4375 3.3125 C14.17412334 0.08734237 15.3280928 -3.20079166 16.4375 -6.6875 C19.0775 -6.6875 21.7175 -6.6875 24.4375 -6.6875 C24.10437036 -0.35803676 22.92622749 3.71429135 18.4375 8.3125 C14.38557436 11.16726579 10.72983349 11.89810045 5.8671875 11.734375 C0.59103069 10.81825774 -4.00917683 7.95018474 -8.46875 5.08984375 C-13.16240269 2.11364125 -16.1560894 1.76269553 -21.5625 2.3125 C-24.2480594 4.9980594 -24.62299974 7.68871328 -25.5625 11.3125 C-27.8725 11.3125 -30.1825 11.3125 -32.5625 11.3125 C-32.35229821 1.64321749 -32.35229821 1.64321749 -29.3125 -2.1875 C-19.6557286 -10.96638309 -9.67201863 -5.71679452 0 0 Z " fill="#EC2A31" transform="translate(211.5625,29.6875)"/>
<path d="M0 0 C1.3529835 0.82675034 2.6954756 1.67089676 4.02734375 2.53125 C9.15638249 5.82530959 12.6162566 7.81885668 18.96484375 7.03125 C21.65911766 4.52278809 22.72721437 1.45853137 23.96484375 -1.96875 C26.27484375 -1.96875 28.58484375 -1.96875 30.96484375 -1.96875 C30.69603198 4.07951484 30.04660552 8.2691946 25.96484375 13.03125 C22.10966037 16.53596216 17.95674776 16.64517277 12.9453125 16.5234375 C7.64281064 15.64779499 3.45276619 12.86231504 -1.03515625 10.03125 C-5.60876424 7.39263001 -8.70961853 6.32787709 -14.03515625 7.03125 C-16.91153338 9.61998942 -17.51281478 12.27039141 -18.03515625 16.03125 C-20.67515625 16.03125 -23.31515625 16.03125 -26.03515625 16.03125 C-25.57195714 11.30661912 -24.93623919 7.86067948 -22.03515625 4.03125 C-21.37515625 4.03125 -20.71515625 4.03125 -20.03515625 4.03125 C-19.70515625 3.04125 -19.37515625 2.05125 -19.03515625 1.03125 C-12.69981025 -2.45965494 -6.52978676 -3.65047311 0 0 Z " fill="#EC2A32" transform="translate(40.03515625,24.96875)"/>
<path d="M0 0 C2.68125 -0.0825 5.3625 -0.165 8.125 -0.25 C8.95789551 -0.28641602 9.79079102 -0.32283203 10.64892578 -0.36035156 C16.06637996 -0.44049524 18.7965152 0.56911833 23 4 C24.64849053 5.64849053 24.2102571 7.55046635 24.25 9.8125 C24.27578125 10.68519531 24.3015625 11.55789062 24.328125 12.45703125 C23.93935277 15.47001602 23.08864858 16.82516931 21 19 C20.34 19 19.68 19 19 19 C19 19.66 19 20.32 19 21 C15.23508833 22.25497056 11.72793525 22.10661648 7.8125 22.0625 C5.234375 22.041875 2.65625 22.02125 0 22 C0 14.74 0 7.48 0 0 Z " fill="#FDF4F4" transform="translate(102,130)"/>
<path d="M0 0 C14.19642857 -0.53571429 14.19642857 -0.53571429 17.8125 1.9375 C20.99526066 4.93838863 20.99526066 4.93838863 21.25 8.25 C20.98167996 12.27480061 20.55871824 13.92953812 18 17 C12.48149535 21.10350346 6.57901757 20.21930059 0 20 C0 13.4 0 6.8 0 0 Z " fill="#FEF4F4" transform="translate(102,96)"/>
<path d="M0 0 C0.72306335 0.02580643 1.44612671 0.05161285 2.19110107 0.07820129 C3.31460968 0.0888134 3.31460968 0.0888134 4.46081543 0.09963989 C6.84589844 0.12756116 9.22860663 0.19028719 11.61297607 0.25398254 C13.23273376 0.27906872 14.85252836 0.30188135 16.47235107 0.32234192 C20.43680347 0.3773793 24.3994876 0.46362932 28.36297607 0.56648254 C28.36297607 0.89648254 28.36297607 1.22648254 28.36297607 1.56648254 C18.13297607 1.56648254 7.90297607 1.56648254 -2.63702393 1.56648254 C-2.63702393 2.22648254 -2.63702393 2.88648254 -2.63702393 3.56648254 C-3.29702393 3.56648254 -3.95702393 3.56648254 -4.63702393 3.56648254 C-4.63702393 4.55648254 -4.63702393 5.54648254 -4.63702393 6.56648254 C-5.95702393 6.89648254 -7.27702393 7.22648254 -8.63702393 7.56648254 C-8.63702393 32.64648254 -8.63702393 57.72648254 -8.63702393 83.56648254 C-8.96702393 83.56648254 -9.29702393 83.56648254 -9.63702393 83.56648254 C-9.7297342 73.48297836 -9.80079416 63.39957571 -9.84427261 53.315732 C-9.86514095 48.63329315 -9.89344473 43.95114606 -9.93878174 39.26887512 C-9.98226652 34.74957604 -10.00616671 30.23055745 -10.0165329 25.71106529 C-10.02391956 23.98747022 -10.03834412 22.26389036 -10.05994415 20.54041481 C-10.08901387 18.12469524 -10.09297855 15.71013229 -10.09112549 13.29426575 C-10.10550659 12.58288452 -10.1198877 11.8715033 -10.13470459 11.13856506 C-10.10552597 7.61941538 -9.68525761 5.64524965 -7.83209229 2.61897278 C-5.2330296 0.1887292 -3.50642831 -0.00194623 0 0 Z " fill="#F79FA3" transform="translate(92.63702392578125,81.43351745605469)"/>
<path d="M0 0 C0.33 0 0.66 0 1 0 C1.33 5.28 1.66 10.56 2 16 C2.33 16 2.66 16 3 16 C3.02886338 20.47915328 3.04675187 24.95828291 3.0625 29.4375 C3.07087891 30.71689453 3.07925781 31.99628906 3.08789062 33.31445312 C3.09111328 34.52939453 3.09433594 35.74433594 3.09765625 36.99609375 C3.10289307 38.12200928 3.10812988 39.2479248 3.11352539 40.40795898 C3 43 3 43 2 44 C1.76518307 46.18292774 1.58636677 48.37203174 1.4375 50.5625 C1.35371094 51.76003906 1.26992187 52.95757812 1.18359375 54.19140625 C1.12300781 55.11824219 1.06242187 56.04507813 1 57 C4.66956597 58.22318866 8.12321003 58.23116124 11.94921875 58.31640625 C12.72183548 58.33718735 13.49445221 58.35796844 14.29048157 58.37937927 C16.7560648 58.44471038 19.22175361 58.50368315 21.6875 58.5625 C23.36003691 58.60570087 25.03256319 58.64931566 26.70507812 58.69335938 C30.8032775 58.8003749 34.90158296 58.90168857 39 59 C39 59.33 39 59.66 39 60 C26.13 60 13.26 60 0 60 C0 40.2 0 20.4 0 0 Z " fill="#F04F55" transform="translate(84,106)"/>
<path d="M0 0 C0.66 0.33 1.32 0.66 2 1 C1.34 1.66 0.68 2.32 0 3 C-0.28178989 5.82992169 -0.28178989 5.82992169 -0.1875 9 C-0.18105469 10.0725 -0.17460938 11.145 -0.16796875 12.25 C-0.18263423 14.96127498 -0.18263423 14.96127498 1 17 C1.10354538 19.36631638 1.14033986 21.69605257 1.125 24.0625 C1.12306641 24.78751709 1.12113281 25.51253418 1.11914062 26.25952148 C1.03799299 37.17951383 0.4944217 48.09247862 0 59 C-0.33 59 -0.66 59 -1 59 C-1.14523152 53.47231858 -1.28749376 47.94457071 -1.42724609 42.41674805 C-1.4749734 40.54433229 -1.5234504 38.67193546 -1.57275391 36.79956055 C-1.88644675 24.86322761 -2.07089292 12.94053335 -2 1 C-1.34 0.67 -0.68 0.34 0 0 Z " fill="#EE373E" transform="translate(86,88)"/>
<path d="M0 0 C1.4282618 0.00031703 2.85654759 0.01163717 4.28466797 0.03173828 C5.41242142 0.03598312 5.41242142 0.03598312 6.56295776 0.04031372 C8.96775125 0.05152204 11.37217428 0.07662726 13.77685547 0.10205078 C15.40575635 0.11207976 17.03466305 0.12120576 18.66357422 0.12939453 C22.65981103 0.15146343 26.65577041 0.18599728 30.65185547 0.22705078 C30.65185547 0.55705078 30.65185547 0.88705078 30.65185547 1.22705078 C20.42185547 1.22705078 10.19185547 1.22705078 -0.34814453 1.22705078 C-0.34814453 1.88705078 -0.34814453 2.54705078 -0.34814453 3.22705078 C-1.00814453 3.22705078 -1.66814453 3.22705078 -2.34814453 3.22705078 C-2.34814453 4.21705078 -2.34814453 5.20705078 -2.34814453 6.22705078 C-3.66814453 6.55705078 -4.98814453 6.88705078 -6.34814453 7.22705078 C-5.26338877 0.35693099 -5.26338877 0.35693099 0 0 Z " fill="#F27378" transform="translate(90.34814453125,81.77294921875)"/>
<path d="M0 0 C0 0.33 0 0.66 0 1 C-4.455 1.495 -4.455 1.495 -9 2 C-9 2.66 -9 3.32 -9 4 C-10.65 4.33 -12.3 4.66 -14 5 C-14 5.66 -14 6.32 -14 7 C-14.639375 7.268125 -15.27875 7.53625 -15.9375 7.8125 C-18.33131686 8.88667752 -18.33131686 8.88667752 -19 12 C-19.66 11.67 -20.32 11.34 -21 11 C-19.625 8.5 -19.625 8.5 -18 6 C-17.34 6 -16.68 6 -16 6 C-15.67 5.01 -15.34 4.02 -15 3 C-9.75926941 0.11225049 -5.93443789 -0.31233884 0 0 Z " fill="#F48488" transform="translate(36,23)"/>
<path d="M0 0 C-0.66 1.32 -1.32 2.64 -2 4 C-2.66 4 -3.32 4 -4 4 C-4 5.65 -4 7.3 -4 9 C-4.99 9.495 -4.99 9.495 -6 10 C-5.38909774 3.52443609 -5.38909774 3.52443609 -3.5625 1.0625 C-2 0 -2 0 0 0 Z " fill="#F9C0C2" transform="translate(192,31)"/>
</svg>
