<?xml version="1.0" encoding="UTF-8"?>
<svg version="1.1" xmlns="http://www.w3.org/2000/svg" width="127" height="137">
<path d="M0 0 C41.91 0 83.82 0 127 0 C127 45.21 127 90.42 127 137 C85.09 137 43.18 137 0 137 C0 91.79 0 46.58 0 0 Z " fill="#FEFEFE" transform="translate(0,0)"/>
<path d="M0 0 C10.08085915 8.21977746 17.18648041 20.45120817 18.78125 33.40625 C19.83959857 48.89156062 16.52307697 63.48818821 6.53125 75.71875 C-3.86869383 86.73719269 -17.10524059 92.26929014 -32.09375 92.71875 C-45.48086179 92.4273532 -57.56174255 87.52856227 -67.375 78.37890625 C-78.05276636 66.95460114 -82.80208655 52.98973149 -82.46484375 37.4765625 C-81.41470665 24.37485206 -75.98326296 11.37484838 -66.21875 2.40625 C-46.41557723 -14.05621362 -20.92680592 -15.03193101 0 0 Z " fill="#010101" transform="translate(95.21875,29.59375)"/>
</svg>
