<?xml version="1.0" standalone="no"?>
<!DOCTYPE svg PUBLIC "-//W3C//DTD SVG 20010904//EN"
 "http://www.w3.org/TR/2001/REC-SVG-20010904/DTD/svg10.dtd">
<svg version="1.0" xmlns="http://www.w3.org/2000/svg"
 width="265.000000pt" height="150.000000pt" viewBox="0 0 265.000000 150.000000"
 preserveAspectRatio="xMidYMid meet">

<g transform="translate(0.000000,150.000000) scale(0.100000,-0.100000)"
fill="#000000" stroke="none">
<path d="M880 1033 c-147 -26 -197 -38 -205 -51 -28 -48 -235 -506 -230 -510
2 -3 357 -15 787 -26 728 -20 786 -21 828 -6 25 9 93 34 153 54 59 21 107 43
107 48 0 5 -46 126 -102 269 l-102 259 -520 -1 -521 -2 -195 -34z m970 -13
c-36 -9 -69 -19 -75 -20 -5 -1 -206 -1 -445 0 l-435 2 85 18 c74 15 142 18
510 18 425 0 425 0 360 -18z m339 -228 c47 -121 87 -219 91 -217 3 2 6 -5 6
-15 0 -10 -3 -17 -7 -14 -4 2 -60 -16 -125 -41 -64 -25 -118 -44 -119 -43 -2
2 -58 115 -127 251 l-124 248 25 6 c239 61 277 68 286 57 6 -6 48 -111 94
-232z m-380 31 c35 -76 90 -189 121 -250 32 -62 55 -113 51 -113 -199 3 -1486
41 -1489 45 -3 3 42 106 99 230 l104 224 525 1 526 0 63 -137z"/>
<path d="M754 810 c-81 -32 -98 -168 -29 -237 27 -27 40 -33 77 -33 23 0 62 9
86 20 l42 19 0 56 0 55 -65 0 c-58 0 -65 -2 -65 -20 0 -17 7 -20 40 -20 35 0
40 -3 40 -23 0 -48 -81 -62 -124 -22 -46 43 -32 142 25 165 35 15 65 6 85 -26
29 -43 69 -20 44 26 -21 40 -104 61 -156 40z"/>
<path d="M1023 800 c-115 -70 -61 -260 73 -260 39 0 82 33 100 76 54 128 -63
252 -173 184z m97 -30 c22 -12 40 -61 40 -111 0 -29 -6 -42 -26 -58 -35 -28
-67 -26 -101 3 -24 21 -28 32 -28 76 0 44 4 55 28 76 30 26 57 30 87 14z"/>
<path d="M1240 680 l0 -140 90 0 c89 0 90 0 90 25 0 24 -2 25 -65 25 l-65 0 0
115 0 115 -25 0 -25 0 0 -140z"/>
<path d="M1450 680 l0 -140 55 0 c111 0 157 38 163 136 7 104 -37 144 -158
144 l-60 0 0 -140z m150 70 c15 -15 20 -33 20 -78 0 -32 -5 -63 -12 -70 -7 -7
-36 -12 -65 -12 l-53 0 0 90 0 90 45 0 c32 0 51 -6 65 -20z"/>
</g>
</svg>
