<?xml version="1.0" encoding="UTF-8"?>
<svg version="1.1" xmlns="http://www.w3.org/2000/svg" width="250" height="200">
<path d="M0 0 C82.5 0 165 0 250 0 C250 66 250 132 250 200 C167.5 200 85 200 0 200 C0 134 0 68 0 0 Z " fill="#FEFEFE" transform="translate(0,0)"/>
<path d="M0 0 C1.27037109 -0.01836914 1.27037109 -0.01836914 2.56640625 -0.03710938 C8.37735985 -0.05045766 13.49341038 0.74831599 19.125 2.1875 C19.125 8.1275 19.125 14.0675 19.125 20.1875 C16.91145833 19.43880208 14.69791667 18.69010417 12.484375 17.94140625 C7.75983366 16.43174321 3.6941015 15.99704333 -1.3125 15.9375 C-2.61058594 15.91171875 -3.90867187 15.8859375 -5.24609375 15.859375 C-9.06175522 16.20438637 -10.93906494 16.75833047 -13.875 19.1875 C-14.83997156 23.31825183 -14.83997156 23.31825183 -13.875 27.1875 C-9.9201631 31.44899538 -4.07678643 33.59248129 1.07739258 36.09765625 C17.51032925 44.09832703 17.51032925 44.09832703 21.125 51.6875 C23.04738081 57.85870972 22.34988225 64.79084934 22.125 71.1875 C21.465 71.1875 20.805 71.1875 20.125 71.1875 C19.8465625 72.239375 19.8465625 72.239375 19.5625 73.3125 C16.67054018 79.09641964 11.04820972 82.84289615 5.125 85.1875 C-0.82704842 86.29288042 -6.70676097 86.40470087 -12.75 86.4375 C-13.69230469 86.458125 -14.63460937 86.47875 -15.60546875 86.5 C-21.84370188 86.53451305 -27.14333325 85.73676361 -32.875 83.1875 C-33.875 82.1875 -33.875 82.1875 -33.98852539 80.42163086 C-33.98328857 79.67276611 -33.97805176 78.92390137 -33.97265625 78.15234375 C-33.96943359 77.34345703 -33.96621094 76.53457031 -33.96289062 75.70117188 C-33.95451172 74.85103516 -33.94613281 74.00089844 -33.9375 73.125 C-33.93298828 72.27099609 -33.92847656 71.41699219 -33.92382812 70.53710938 C-33.91200373 68.42054337 -33.89406769 66.30401315 -33.875 64.1875 C-32.87919922 64.71150391 -32.87919922 64.71150391 -31.86328125 65.24609375 C-30.98027344 65.70113281 -30.09726563 66.15617187 -29.1875 66.625 C-28.31738281 67.07746094 -27.44726562 67.52992188 -26.55078125 67.99609375 C-21.67512375 70.16700694 -17.17747222 70.34643065 -11.875 70.375 C-10.080625 70.39626953 -10.080625 70.39626953 -8.25 70.41796875 C-4.99804792 70.19590258 -2.79229469 69.58537037 0.125 68.1875 C1.1757724 63.41097943 1.1757724 63.41097943 0.21484375 58.72265625 C-2.8592753 54.99349128 -6.61817658 53.67986111 -11 51.8125 C-29.24663945 43.58379125 -29.24663945 43.58379125 -33.29296875 35.47265625 C-35.45776944 26.97327098 -34.82820431 17.32350749 -30.4375 9.6875 C-21.64600469 1.11043141 -11.70461315 0.00882701 0 0 Z " fill="#1A9C09" transform="translate(114.875,66.8125)"/>
<path d="M0 0 C0.79921875 0.01804687 1.5984375 0.03609375 2.421875 0.0546875 C3.02515625 0.07789062 3.6284375 0.10109375 4.25 0.125 C4.25 0.785 4.25 1.445 4.25 2.125 C5.12914063 2.22683594 6.00828125 2.32867188 6.9140625 2.43359375 C10.42540474 3.16135438 12.59614247 4.30889775 15.625 6.1875 C20.56798062 8.99279323 23.61824949 10.04655917 29.25 9.125 C29.91 8.135 30.57 7.145 31.25 6.125 C33.4140625 5.61328125 33.4140625 5.61328125 35.875 5.4375 C36.69226563 5.37175781 37.50953125 5.30601563 38.3515625 5.23828125 C38.97804687 5.20089844 39.60453125 5.16351562 40.25 5.125 C39.81534864 10.05104873 37.65373025 12.64391224 34.25 16.125 C29.97485889 18.73758623 25.11457589 18.88701426 20.25 18.125 C15.44092228 16.30711068 11.25026929 13.86519928 7.125 10.8125 C3.05944309 8.42619486 0.9219721 8.4468105 -3.75 9.125 C-6.65484097 11.80639167 -8.16881151 14.20197771 -8.75 18.125 C-11.06 18.125 -13.37 18.125 -15.75 18.125 C-16.58496262 11.44529902 -16.58496262 11.44529902 -14.33203125 7.8828125 C-10.04652572 2.89371651 -6.81824704 -0.20053668 0 0 Z " fill="#22A011" transform="translate(34.75,24.875)"/>
<path d="M0 0 C2.03068965 1.26405302 4.04951648 2.54740773 6.0546875 3.8515625 C10.08261694 6.17714354 12.23889521 6.30237603 16.78125 5.42578125 C18.47899938 4.13225792 20.14864286 2.80060832 21.78125 1.42578125 C25.09375 1.17578125 25.09375 1.17578125 27.78125 1.42578125 C27.50512317 5.38359911 27.04071652 7.12534633 24.40625 10.17578125 C19.61356683 14.2837954 16.92119423 14.91834974 10.765625 14.8125 C4.56816841 14.00942644 -0.40031544 10.77142283 -5.34375 7.11328125 C-9.34444469 4.76504741 -11.6243186 4.89855142 -16.21875 5.42578125 C-18.28277685 6.40627063 -18.28277685 6.40627063 -19.21875 8.42578125 C-19.9456726 11.53417146 -19.9456726 11.53417146 -20.21875 14.42578125 C-22.85875 14.42578125 -25.49875 14.42578125 -28.21875 14.42578125 C-28.42543617 10.91211628 -28.4472063 8.0806893 -27.28125 4.73828125 C-20.68024808 -2.66284211 -8.74543421 -4.27719659 0 0 Z " fill="#23A012" transform="translate(129.21875,28.57421875)"/>
<path d="M0 0 C2.0178239 1.27333416 4.02605623 2.56202037 6.0234375 3.8671875 C9.99993017 6.15083043 12.28636981 6.25048958 16.7578125 5.4375 C17.2528125 4.9425 17.7478125 4.4475 18.2578125 3.9375 C19.7578125 2.4375 19.7578125 2.4375 21.70703125 2.23828125 C23.72502357 2.24884665 25.7422286 2.33837292 27.7578125 2.4375 C27.34224833 7.28574868 25.38333005 9.31786862 21.7578125 12.4375 C17.1366773 15.13395621 12.9828923 15.48525519 7.7578125 14.4375 C4.68823287 12.87663788 1.80631895 11.18801545 -1.11621094 9.37817383 C-6.07452002 6.36329863 -9.45464564 5.15745765 -15.2421875 5.4375 C-17.84088065 6.30174561 -17.84088065 6.30174561 -19.2421875 8.4375 C-20.05165172 11.53947397 -20.05165172 11.53947397 -20.2421875 14.4375 C-22.5521875 14.4375 -24.8621875 14.4375 -27.2421875 14.4375 C-27.36067937 5.71988399 -27.36067937 5.71988399 -24.72265625 2.6953125 C-17.51800434 -2.43136612 -8.12065709 -3.91356968 0 0 Z " fill="#22A011" transform="translate(211.2421875,28.5625)"/>
<path d="M0 0 C0.83789062 -0.00773437 1.67578125 -0.01546875 2.5390625 -0.0234375 C8.30052877 -0.00560014 13.41577262 0.83142611 19 2.25 C19 8.19 19 14.13 19 20.25 C18.34 19.92 17.68 19.59 17 19.25 C17.33 13.97 17.66 8.69 18 3.25 C7.11 3.25 -3.78 3.25 -15 3.25 C-15 3.91 -15 4.57 -15 5.25 C-17.64 5.25 -20.28 5.25 -23 5.25 C-17.05183448 -0.43954963 -7.72437823 -0.07130195 0 0 Z " fill="#49B03B" transform="translate(115,66.75)"/>
<path d="M0 0 C0 0.99 0 1.98 0 3 C-1.32 3.33 -2.64 3.66 -4 4 C-3.938125 4.78375 -3.87625 5.5675 -3.8125 6.375 C-3.874375 7.24125 -3.93625 8.1075 -4 9 C-4.99 9.66 -5.98 10.32 -7 11 C-7.50776044 13.21932277 -7.50776044 13.21932277 -7.51171875 15.7890625 C-7.54716797 16.73007813 -7.58261719 17.67109375 -7.61914062 18.640625 C-7.64169922 19.62546875 -7.66425781 20.6103125 -7.6875 21.625 C-7.72166016 22.61757812 -7.75582031 23.61015625 -7.79101562 24.6328125 C-7.87365657 27.08842906 -7.94275127 29.54368141 -8 32 C-10 31 -10 31 -11 28 C-11.12162188 25.56473397 -11.17544129 23.12577133 -11.1875 20.6875 C-11.20167969 19.39199219 -11.21585937 18.09648438 -11.23046875 16.76171875 C-10.85159866 10.5777883 -9.17774716 6.55754236 -5 2 C-2 0 -2 0 0 0 Z " fill="#66BD5B" transform="translate(92,72)"/>
<path d="M0 0 C1.15628906 -0.01417969 2.31257813 -0.02835938 3.50390625 -0.04296875 C6.4375 0.1875 6.4375 0.1875 8.4375 2.1875 C2.4975 2.5175 -3.4425 2.8475 -9.5625 3.1875 C-10.2225 4.5075 -10.8825 5.8275 -11.5625 7.1875 C-12.5525 7.1875 -13.5425 7.1875 -14.5625 7.1875 C-14.2325 10.1575 -13.9025 13.1275 -13.5625 16.1875 C-14.8825 16.1875 -16.2025 16.1875 -17.5625 16.1875 C-17.68099187 7.46988399 -17.68099187 7.46988399 -15.04296875 4.4453125 C-10.13277254 0.95132025 -6.02911979 0.03368223 0 0 Z " fill="#5FBA53" transform="translate(201.5625,26.8125)"/>
<path d="M0 0 C0 0.33 0 0.66 0 1 C-1.21236328 1.05607422 -1.21236328 1.05607422 -2.44921875 1.11328125 C-3.51785156 1.17902344 -4.58648437 1.24476562 -5.6875 1.3125 C-6.74324219 1.37050781 -7.79898438 1.42851562 -8.88671875 1.48828125 C-12.27637599 2.04542692 -14.19371525 3.06380694 -17 5 C-17.99 5.66 -18.98 6.32 -20 7 C-21.2188121 10.55672179 -21.2188121 10.55672179 -22 14 C-21.34 14 -20.68 14 -20 14 C-20 14.66 -20 15.32 -20 16 C-21.65 16 -23.3 16 -25 16 C-25.20668617 12.48633503 -25.2284563 9.65490805 -24.0625 6.3125 C-17.64835645 -0.8791155 -8.99451417 -0.50046756 0 0 Z " fill="#6BBF60" transform="translate(126,27)"/>
<path d="M0 0 C0.75 1.75 0.75 1.75 1 4 C-0.33333333 5.33333333 -1.66666667 6.66666667 -3 8 C-3.80315654 11.14481791 -3.80315654 11.14481791 -4 14 C-5.32 13.67 -6.64 13.34 -8 13 C-8 10.36 -8 7.72 -8 5 C-7.360625 4.71125 -6.72125 4.4225 -6.0625 4.125 C-3.84793921 3.17176549 -3.84793921 3.17176549 -3 1 C-2.01 0.67 -1.02 0.34 0 0 Z " fill="#2CA41C" transform="translate(195,29)"/>
<path d="M0 0 C0.79921875 0.02707031 1.5984375 0.05414062 2.421875 0.08203125 C3.02515625 0.11683594 3.6284375 0.15164062 4.25 0.1875 C4.25 0.8475 4.25 1.5075 4.25 2.1875 C5.57 2.5175 6.89 2.8475 8.25 3.1875 C2.64 3.1875 -2.97 3.1875 -8.75 3.1875 C-4.25 -0.1875 -4.25 -0.1875 0 0 Z " fill="#7BC671" transform="translate(34.75,24.8125)"/>
<path d="M0 0 C2.64 0 5.28 0 8 0 C7.67 1.98 7.34 3.96 7 6 C6.67 5.34 6.34 4.68 6 4 C3.69 4 1.38 4 -1 4 C-0.67 2.68 -0.34 1.36 0 0 Z " fill="#BCE2B6" transform="translate(233,27)"/>
<path d="M0 0 C1.38541992 0.00483398 1.38541992 0.00483398 2.79882812 0.00976562 C4.17844727 -0.0144043 4.17844727 -0.0144043 5.5859375 -0.0390625 C6.91141602 -0.0400293 6.91141602 -0.0400293 8.26367188 -0.04101562 C9.07312256 -0.04399658 9.88257324 -0.04697754 10.71655273 -0.05004883 C13.32803111 0.40328123 14.20696622 1.30685514 15.86132812 3.32226562 C13.88132812 3.32226562 11.90132812 3.32226562 9.86132812 3.32226562 C9.86132812 2.66226562 9.86132812 2.00226562 9.86132812 1.32226562 C8.18103516 1.43054688 8.18103516 1.43054688 6.46679688 1.54101562 C4.99414378 1.63481519 3.52148736 1.72856246 2.04882812 1.82226562 C0.9418457 1.89380859 0.9418457 1.89380859 -0.1875 1.96679688 C-3.17691775 2.15617176 -6.14241761 2.32226562 -9.13867188 2.32226562 C-6.26271631 -0.55368994 -3.93318632 0.0316034 0 0 Z " fill="#43AE35" transform="translate(32.138671875,27.677734375)"/>
<path d="M0 0 C0.66 0.33 1.32 0.66 2 1 C1.34 1.66 0.68 2.32 0 3 C-0.24253813 5.21072977 -0.24253813 5.21072977 -0.125 7.625 C-0.10695312 8.44226562 -0.08890625 9.25953125 -0.0703125 10.1015625 C-0.04710937 10.72804688 -0.02390625 11.35453125 0 12 C-1.32 12 -2.64 12 -4 12 C-3.9129995 10.37399059 -3.8048219 8.74910322 -3.6875 7.125 C-3.62949219 6.22007813 -3.57148438 5.31515625 -3.51171875 4.3828125 C-3 2 -3 2 0 0 Z " fill="#82C979" transform="translate(188,31)"/>
<path d="M0 0 C2.64 0 5.28 0 8 0 C7.67 1.98 7.34 3.96 7 6 C6.67 5.01 6.34 4.02 6 3 C3.36 3.33 0.72 3.66 -2 4 C-1.34 2.68 -0.68 1.36 0 0 Z " fill="#CEEACB" transform="translate(151,27)"/>
<path d="M0 0 C-1 1 -1 1 -4.0625 1.0625 C-5.031875 1.041875 -6.00125 1.02125 -7 1 C-7 1.99 -7 2.98 -7 4 C-9.64 4 -12.28 4 -15 4 C-11.47545561 0.62869667 -4.64168881 -2.32084441 0 0 Z " fill="#85CA7B" transform="translate(107,68)"/>
<path d="M0 0 C0.928125 0.0825 1.85625 0.165 2.8125 0.25 C2.8125 2.23 2.8125 4.21 2.8125 6.25 C2.4825 5.26 2.1525 4.27 1.8125 3.25 C-0.8275 3.58 -3.4675 3.91 -6.1875 4.25 C-4.36434338 1.00883268 -3.82500054 0.30000004 0 0 Z " fill="#A4D79D" transform="translate(73.1875,26.75)"/>
<path d="M0 0 C1.36125 0.12375 1.36125 0.12375 2.75 0.25 C2.42 2.23 2.09 4.21 1.75 6.25 C1.42 4.93 1.09 3.61 0.75 2.25 C-1.89 2.91 -4.53 3.57 -7.25 4.25 C-4.83923194 1.28290085 -3.90322061 0.30024774 0 0 Z " fill="#4EB240" transform="translate(154.25,29.75)"/>
<path d="M0 0 C1.32 0.33 2.64 0.66 4 1 C3.67 2.32 3.34 3.64 3 5 C3.66 5 4.32 5 5 5 C5 5.66 5 6.32 5 7 C3.35 7 1.7 7 0 7 C0 4.69 0 2.38 0 0 Z " fill="#49B03B" transform="translate(101,36)"/>
<path d="M0 0 C0 0.99 0 1.98 0 3 C-0.969375 3.268125 -1.93875 3.53625 -2.9375 3.8125 C-3.948125 4.204375 -4.95875 4.59625 -6 5 C-6.33 5.99 -6.66 6.98 -7 8 C-7.66 7.67 -8.32 7.34 -9 7 C-3.65789474 0 -3.65789474 0 0 0 Z " fill="#93D08B" transform="translate(92,72)"/>
</svg>
