<?xml version="1.0" encoding="UTF-8"?>
<svg version="1.1" xmlns="http://www.w3.org/2000/svg" width="200" height="200">
<path d="M0 0 C66 0 132 0 200 0 C200 66 200 132 200 200 C134 200 68 200 0 200 C0 134 0 68 0 0 Z " fill="#F1F2F1" transform="translate(0,0)"/>
<path d="M0 0 C1.29357422 -0.00386719 1.29357422 -0.00386719 2.61328125 -0.0078125 C3.95326172 0.00378906 3.95326172 0.00378906 5.3203125 0.015625 C6.20589844 0.00789062 7.09148437 0.00015625 8.00390625 -0.0078125 C21.34670806 0.0319574 34.02430861 6.98763445 43.4453125 16.265625 C46.4453125 20.68980082 46.4453125 20.68980082 46.4453125 23.265625 C47.1053125 23.265625 47.7653125 23.265625 48.4453125 23.265625 C51.10569349 28.8282398 52.40764199 34.19830448 53.4453125 40.265625 C60.5540059 39.84153714 60.5540059 39.84153714 66.48828125 36.3515625 C67.60684538 34.90280438 68.72157847 33.45107842 69.83203125 31.99609375 C71.4453125 30.265625 71.4453125 30.265625 75.0078125 29.453125 C79.53223799 30.52253466 81.23878168 31.90640224 84.4453125 35.265625 C86.97941586 42.01286952 86.6445649 51.78820799 84.31640625 58.5390625 C82.88954559 61.13945086 81.56258644 63.19175759 79.4453125 65.265625 C76.3828125 66.140625 76.3828125 66.140625 73.4453125 65.265625 C70.04280343 63.10039195 67.80643939 61.10152806 66.4453125 57.265625 C66.4453125 56.275625 66.4453125 55.285625 66.4453125 54.265625 C62.4853125 53.935625 58.5253125 53.605625 54.4453125 53.265625 C54.47496094 54.76480469 54.50460938 56.26398438 54.53515625 57.80859375 C54.5339876 65.11382659 53.76969821 72.32034699 53.0078125 79.578125 C47.70906535 114.71793271 47.70906535 114.71793271 56.24609375 148.18359375 C60.03021435 152.80536434 63.3342152 155.65451527 69.4453125 156.265625 C76.65779626 156.24914861 76.65779626 156.24914861 83.4453125 154.265625 C86.8828125 153.953125 86.8828125 153.953125 90.4453125 154.265625 C92.81005842 156.32524242 93.32473417 157.72972131 94.0078125 160.765625 C93.4453125 163.265625 93.4453125 163.265625 91.2578125 165.265625 C76.51174593 173.82112589 57.42377106 177.26142591 40.71875 173.25 C35.38269072 171.78838376 30.2249311 170.16639254 25.2734375 167.66015625 C14.8952427 162.54273147 -0.88536357 164.0735731 -11.6796875 167.265625 C-13.29230469 167.8225 -13.29230469 167.8225 -14.9375 168.390625 C-17.5546875 169.265625 -17.5546875 169.265625 -20.5546875 169.265625 C-20.5546875 169.925625 -20.5546875 170.585625 -20.5546875 171.265625 C-26.17390816 173.81485717 -31.28603089 173.60876282 -37.3671875 173.578125 C-39.04373413 173.57184082 -39.04373413 173.57184082 -40.75415039 173.56542969 C-52.73558604 173.40303982 -65.9528599 172.45381622 -76.5546875 166.265625 C-78.86801236 162.79563771 -78.89426313 161.34053252 -78.5546875 157.265625 C-77.8946875 156.275625 -77.2346875 155.285625 -76.5546875 154.265625 C-71.17421524 153.81725231 -67.66210886 154.56315121 -62.5546875 156.265625 C-56.64390851 156.73473444 -52.89180108 156.13945539 -47.5546875 153.265625 C-46.20270892 151.95120138 -44.86442748 150.6221414 -43.5546875 149.265625 C-42.5646875 149.265625 -41.5746875 149.265625 -40.5546875 149.265625 C-39.8946875 146.625625 -39.2346875 143.985625 -38.5546875 141.265625 C-37.8946875 141.265625 -37.2346875 141.265625 -36.5546875 141.265625 C-34.25825171 124.76399551 -35.99110526 108.16429429 -37.27294922 91.6394043 C-38.28270193 78.4839979 -38.74823777 65.46019786 -38.5546875 52.265625 C-40.01391443 52.37972093 -41.47209348 52.50728044 -42.9296875 52.640625 C-43.74179687 52.71023437 -44.55390625 52.77984375 -45.390625 52.8515625 C-47.75802941 53.09455088 -47.75802941 53.09455088 -49.5546875 55.265625 C-50.8746875 55.265625 -52.1946875 55.265625 -53.5546875 55.265625 C-53.6784375 56.1009375 -53.6784375 56.1009375 -53.8046875 56.953125 C-54.79078184 59.99358254 -56.44054968 61.89522805 -58.5546875 64.265625 C-61.57868874 65.77762562 -63.19372584 65.8473299 -66.5546875 65.265625 C-72.7301566 59.13294206 -73.83238804 53.48909804 -73.87817383 44.97192383 C-73.78483132 39.50840796 -72.9768501 36.4699962 -69.5546875 32.265625 C-65.8341039 29.78523593 -63.95672179 29.80225297 -59.5546875 30.265625 C-57.1171875 32.078125 -57.1171875 32.078125 -55.5546875 34.265625 C-55.5546875 35.255625 -55.5546875 36.245625 -55.5546875 37.265625 C-52.00910482 38.23978262 -48.43854208 38.78304681 -44.8046875 39.328125 C-43.63421875 39.50472656 -42.46375 39.68132813 -41.2578125 39.86328125 C-40.36578125 39.99605469 -39.47375 40.12882812 -38.5546875 40.265625 C-38.60109375 39.70875 -38.6475 39.151875 -38.6953125 38.578125 C-39.12919807 29.40454446 -35.24880183 23.49055491 -29.6015625 16.50390625 C-23.5386416 9.87403282 -16.85162135 5.52628772 -8.5546875 2.265625 C-7.64348145 1.75443115 -7.64348145 1.75443115 -6.71386719 1.23291016 C-4.29423522 0.14894568 -2.63965291 0.00764642 0 0 Z " fill="#71BD83" transform="translate(96.5546875,13.734375)"/>
<path d="M0 0 C66 0 132 0 200 0 C200 66 200 132 200 200 C134 200 68 200 0 200 C0 134 0 68 0 0 Z M11 8 C11 68.39 11 128.78 11 191 C71.39 191 131.78 191 194 191 C194 130.61 194 70.22 194 8 C133.61 8 73.22 8 11 8 Z " fill="#FEFEFE" transform="translate(0,0)"/>
<path d="M0 0 C1.2684375 1.1446875 1.2684375 1.1446875 2.5625 2.3125 C3.91162224 3.29860542 5.26619696 4.27727753 6.625 5.25 C12.60040167 9.73435397 17.27868088 15.71214816 19.3125 23 C20.10236497 33.46571084 20.23933862 40.72627609 13.3125 49 C3.72337742 57.06358035 -4.9963064 58.66344005 -17.3125 58.625 C-18.33730469 58.64111328 -19.36210938 58.65722656 -20.41796875 58.67382812 C-27.24589435 58.67816607 -33.02577009 57.66157155 -39.4375 55.3125 C-39.4375 54.6525 -39.4375 53.9925 -39.4375 53.3125 C-40.13875 53.085625 -40.84 52.85875 -41.5625 52.625 C-46.06629462 50.56891985 -49.63647712 48.22034165 -51.59375 43.55859375 C-53.95690359 34.46701673 -53.20957349 23.93248485 -49.4375 15.3125 C-44.32119712 7.03080772 -37.94858217 0.90007383 -28.4375 -1.6875 C-20.22314521 -3.33262455 -7.25989002 -5.0260777 0 0 Z " fill="#F4F5F4" transform="translate(120.4375,29.6875)"/>
<path d="M0 0 C4.28557649 0.67710457 7.09686901 2.23475863 9.90234375 5.5078125 C11.76637354 10.16788699 11.62535329 14.52628387 10.02734375 19.3203125 C9.03734375 19.6503125 8.04734375 19.9803125 7.02734375 20.3203125 C6.36734375 21.3103125 5.70734375 22.3003125 5.02734375 23.3203125 C-0.07780971 24.2462472 -4.77429048 23.77486503 -9.59765625 21.9453125 C-12.64108626 18.58152143 -12.96143448 16.17583121 -13.14453125 11.72265625 C-12.91381473 8.49786855 -12.06497771 6.77337904 -9.97265625 4.3203125 C-9.41578125 3.5571875 -8.85890625 2.7940625 -8.28515625 2.0078125 C-5.50340833 -0.02211166 -3.40809303 -0.19039626 0 0 Z " fill="#505864" transform="translate(104.97265625,50.6796875)"/>
<path d="M0 0 C2.31 0 4.62 0 7 0 C7.309375 0.928125 7.309375 0.928125 7.625 1.875 C9.5809108 4.89777123 11.57666069 5.07833172 15 6 C15.91990723 6.34184326 16.83981445 6.68368652 17.78759766 7.03588867 C23.53028134 8.75939208 29.42203353 8.32729365 35.375 8.3125 C36.6640625 8.32861328 37.953125 8.34472656 39.28125 8.36132812 C48.19528354 8.36590412 54.77185846 7.57776361 62.1875 2.3125 C65.24849124 0.295989 67.24121998 -0.58730938 71 0 C71.495 2.475 71.495 2.475 72 5 C68.72099683 6.75946512 65.80202595 8.05192762 62.1875 9 C61.135625 9.33 60.08375 9.66 59 10 C58.67 10.99 58.34 11.98 58 13 C50.95017118 14.67630324 44.30005625 15.32276151 37.0625 15.25 C36.09900635 15.24395752 35.1355127 15.23791504 34.14282227 15.23168945 C17.21548261 14.99533411 17.21548261 14.99533411 10 10 C8.23830536 9.08632607 6.46647712 8.19205014 4.6875 7.3125 C3.80449219 6.87550781 2.92148438 6.43851562 2.01171875 5.98828125 C1.34785156 5.66214844 0.68398437 5.33601563 0 5 C0 3.35 0 1.7 0 0 Z " fill="#558372" transform="translate(68,90)"/>
<path d="M0 0 C9.06976744 -0.30232558 9.06976744 -0.30232558 12 2 C14.25 5.125 14.25 5.125 16 8 C9.48273216 14.51726784 -3.37798855 15.28163081 -12.05957031 15.34716797 C-16.37640052 15.29733139 -20.68724898 15.19556915 -25 15 C-24.64069694 12.34115733 -24.29741608 10.42660619 -22.75 8.20703125 C-20.40400647 6.5889241 -18.82903308 6.63277168 -16 6.6875 C-15.13375 6.69136719 -14.2675 6.69523438 -13.375 6.69921875 C-11 7 -11 7 -8 9 C-7.5875 8.195625 -7.175 7.39125 -6.75 6.5625 C-4.77017119 3.66346495 -4.24087575 3.64817515 -1 3 C-0.67 2.01 -0.34 1.02 0 0 Z " fill="#5E6460" transform="translate(72,171)"/>
<path d="M0 0 C3.11118807 1.61080301 4.86430351 2.90956432 6.49609375 6.03125 C6.68171875 6.77375 6.86734375 7.51625 7.05859375 8.28125 C7.61417969 7.79527344 8.16976562 7.30929688 8.7421875 6.80859375 C11.43824725 5.03092197 12.92265761 4.84857419 16.12109375 4.84375 C17.40693359 4.81474609 17.40693359 4.81474609 18.71875 4.78515625 C21.05859375 5.28125 21.05859375 5.28125 22.8671875 7.05859375 C24.05859375 9.28125 24.05859375 9.28125 24.05859375 13.28125 C-4.65613018 13.7919862 -4.65613018 13.7919862 -15.94140625 7.28125 C-15.23004879 4.02645406 -14.57868377 2.41135877 -11.94140625 0.28125 C-7.8445225 -1.08437792 -4.14301458 -1.53383236 0 0 Z " fill="#616562" transform="translate(135.94140625,172.71875)"/>
<path d="M0 0 C4.3497083 0.6213869 8.67187386 1.26105163 13 2 C13 5.3 13 8.6 13 12 C11.96875 12.12375 10.9375 12.2475 9.875 12.375 C5.57996607 12.96097587 5.57996607 12.96097587 0 15 C0 10.05 0 5.1 0 0 Z " fill="#538071" transform="translate(44,53)"/>
<path d="M0 0 C0.66 0 1.32 0 2 0 C2 4.62 2 9.24 2 14 C-1.63 13.34 -5.26 12.68 -9 12 C-9 8.7 -9 5.4 -9 2 C-6.94921875 1.77213542 -4.8984375 1.54427083 -2.84765625 1.31640625 C-0.98859771 1.18113386 -0.98859771 1.18113386 0 0 Z " fill="#527F70" transform="translate(160,53)"/>
<path d="M0 0 C5.0302076 0.52537724 10.01885239 1.10594786 15 2 C14.52613972 6.26474248 12.22968679 8.35752899 9 11 C6.375 11.5625 6.375 11.5625 4 11 C0.57390217 7.94098408 0.42400674 4.40967012 0 0 Z " fill="#F3F5F3" transform="translate(79,102)"/>
<path d="M0 0 C-0.28211877 1.6266848 -0.57602375 3.25132896 -0.875 4.875 C-1.03742188 5.77992187 -1.19984375 6.68484375 -1.3671875 7.6171875 C-2 10 -2 10 -4 12 C-7.28288776 11.88679697 -8.30354487 10.71715137 -10.75 8.4375 C-11.4925 7.633125 -12.235 6.82875 -13 6 C-12.67 5.01 -12.34 4.02 -12 3 C-10.0390625 2.05078125 -10.0390625 2.05078125 -7.625 1.3125 C-6.83351563 1.06113281 -6.04203125 0.80976562 -5.2265625 0.55078125 C-3 0 -3 0 0 0 Z " fill="#EEF2F0" transform="translate(130,101)"/>
<path d="M0 0 C4.62 0 9.24 0 14 0 C12.21739173 3.56521654 10.24007711 6.71455357 8 10 C6.0625 9.6875 6.0625 9.6875 4 9 C3.67 8.01 3.34 7.02 3 6 C2.01 5.34 1.02 4.68 0 4 C0 2.68 0 1.36 0 0 Z " fill="#E7EEE9" transform="translate(98,105)"/>
<path d="M0 0 C5.0302076 0.52537724 10.01885239 1.10594786 15 2 C14.67 3.32 14.34 4.64 14 6 C13.67 5.34 13.34 4.68 13 4 C10.65092125 3.31068656 10.65092125 3.31068656 7.9375 2.875 C7.01839844 2.70742187 6.09929687 2.53984375 5.15234375 2.3671875 C4.44207031 2.24601562 3.73179688 2.12484375 3 2 C3.87472593 6.95514502 3.87472593 6.95514502 7.125 10.4375 C7.74375 10.623125 8.3625 10.80875 9 11 C6.6875 11.25 6.6875 11.25 4 11 C0.57390217 7.94098408 0.42400674 4.40967012 0 0 Z " fill="#C5DACC" transform="translate(79,102)"/>
<path d="M0 0 C1.27758208 3.87267068 1.07063948 7.72726735 1 11.75 C0.94520966 17.25891922 1.09324624 22.55947745 2 28 C0 27 0 27 -1.109375 24.37109375 C-3.18849733 16.50143334 -2.90451457 7.62435074 0 0 Z " fill="#D5E8DA" transform="translate(70,49)"/>
<path d="M0 0 C4.27778496 4.27778496 3.14964291 11.38841275 3.23046875 17.09765625 C2.99161281 20.10562173 2.26398326 22.2771902 1 25 C0.67 25 0.34 25 0 25 C0 16.75 0 8.5 0 0 Z " fill="#C5E1CC" transform="translate(137,48)"/>
<path d="M0 0 C0.66 0.33 1.32 0.66 2 1 C-6.27906977 10.58139535 -6.27906977 10.58139535 -9 13 C-9.66 13 -10.32 13 -11 13 C-9.63422544 8.71506993 -7.79318655 6.56854295 -4.375 3.6875 C-3.55773437 2.99011719 -2.74046875 2.29273438 -1.8984375 1.57421875 C-0.95871094 0.79498047 -0.95871094 0.79498047 0 0 Z " fill="#D9EADD" transform="translate(84,31)"/>
<path d="M0 0 C1.65 0.33 3.3 0.66 5 1 C4.67 2.65 4.34 4.3 4 6 C2.35 5.67 0.7 5.34 -1 5 C-0.67 3.35 -0.34 1.7 0 0 Z " fill="#CBCDD0" transform="translate(103,59)"/>
<path d="M0 0 C1.33332095 2.6666419 0.67102033 4.16680303 0 7 C0.99 7.66 1.98 8.32 3 9 C0.6875 9.3125 0.6875 9.3125 -2 9 C-3.6875 6.6875 -3.6875 6.6875 -5 4 C-5.66 3.01 -6.32 2.02 -7 1 C-4.525 1.99 -4.525 1.99 -2 3 C-1.34 2.01 -0.68 1.02 0 0 Z " fill="#6B8A74" transform="translate(66,177)"/>
<path d="M0 0 C0.66 0.33 1.32 0.66 2 1 C-6.261959 9.6309795 -6.261959 9.6309795 -11 12 C-9.49650623 8.33213607 -7.36271208 6.31089607 -4.375 3.75 C-3.14910156 2.69039062 -3.14910156 2.69039062 -1.8984375 1.609375 C-1.27195312 1.07828125 -0.64546875 0.5471875 0 0 Z " fill="#90CA9E" transform="translate(77,21)"/>
<path d="M0 0 C-0.71428571 8.57142857 -0.71428571 8.57142857 -4 12 C-3.54177532 8.53058454 -3.10868317 5.32604951 -2 2 C-2.99 1.67 -3.98 1.34 -5 1 C-3 0 -3 0 0 0 Z " fill="#98C7A6" transform="translate(132,99)"/>
<path d="M0 0 C1.5 1.375 1.5 1.375 3 3 C3 3.66 3 4.32 3 5 C3.66 5 4.32 5 5 5 C4.67 6.65 4.34 8.3 4 10 C2.68 9.67 1.36 9.34 0 9 C0.66 9 1.32 9 2 9 C2 7.35 2 5.7 2 4 C1.34 4 0.68 4 0 4 C0 2.68 0 1.36 0 0 Z " fill="#66826E" transform="translate(140,176)"/>
</svg>
