<?xml version="1.0" encoding="UTF-8"?>
<svg version="1.1" xmlns="http://www.w3.org/2000/svg" width="1360" height="1410">
<path d="M0 0 C448.8 0 897.6 0 1360 0 C1360 465.3 1360 930.6 1360 1410 C911.2 1410 462.4 1410 0 1410 C0 944.7 0 479.4 0 0 Z " fill="#FEFEFE" transform="translate(0,0)"/>
<path d="M0 0 C2.42708963 0.00002842 4.85417926 0.00005657 7.28126889 0.00008446 C66.4232946 0.00089639 125.56531789 0.01043122 184.70734192 0.02392192 C222.95308785 0.03264555 261.19883336 0.03881425 299.44458008 0.04272461 C300.72256922 0.04285614 302.00055836 0.04298766 303.31727445 0.04312317 C316.16290043 0.04444281 329.00852641 0.04571846 341.8541524 0.04696203 C367.97265864 0.04949154 394.09116484 0.05231275 420.20967102 0.05531311 C421.40795538 0.0554504 422.60623975 0.05558769 423.84083576 0.05572914 C502.51498508 0.06477616 581.1891333 0.08059874 659.86328125 0.09765625 C660.20873668 83.92254103 660.52951773 167.7475885 660.99274203 552.79740183 C660.98838463 575.14463397 660.98879391 597.49186142 660.99319757 619.83909352 C661.00808482 695.50880145 661.01851698 771.17859033 659.86328125 1169.09765625 C658.74152608 1169.0993925 657.61977092 1169.10112875 656.46402317 1169.10291761 C606.19007841 1169.18076832 555.91613497 1169.25940698 505.64219666 1169.34132385 C504.8616279 1169.34259553 504.08105914 1169.34386721 503.27683679 1169.34517743 C486.24825105 1169.37292387 469.21966551 1169.40078882 452.19108016 1169.42877319 C443.82115308 1169.44252742 435.45122597 1169.45625589 427.08129883 1169.4699707 C426.24908975 1169.47133479 425.41688067 1169.47269887 424.55945313 1169.47410429 C399.94390044 1169.51444087 375.32834596 1169.55342462 350.71278935 1169.59129218 C312.41063866 1169.65023724 274.10849275 1169.71175997 235.80635248 1169.77714174 C233.39657256 1169.78125318 230.98679263 1169.78535399 228.57701269 1169.7894536 C151.57059615 1169.92060507 74.56443444 1170.08947238 -2.44165039 1170.35375977 C-3.2624784 1170.35657455 -4.08330641 1170.35938933 -4.929008 1170.3622894 C-39.56098887 1170.48113824 -74.19294267 1170.60675633 -108.82487089 1170.74005454 C-122.23676 1170.79166071 -135.64865214 1170.84245667 -149.06054688 1170.89257812 C-149.73562982 1170.89510592 -150.41071276 1170.89763371 -151.10625276 1170.9002381 C-225.44961102 1171.17841575 -299.79297518 1171.21711641 -374.13671875 1171.09765625 C-374.13449814 1171.84428968 -374.13227753 1172.59092312 -374.12998962 1173.36018181 C-373.93577465 1241.84093924 -373.93577465 1241.84093924 -375.13671875 1273.22265625 C-375.23543721 1276.00512785 -375.33061823 1278.78771733 -375.42578125 1281.5703125 C-375.65019173 1288.07992196 -375.88919188 1294.58888466 -376.13671875 1301.09765625 C-379.43671875 1301.09765625 -382.73671875 1301.09765625 -386.13671875 1301.09765625 C-386.19642878 1278.55810302 -386.08100169 1256.02640736 -385.7644043 1233.48901367 C-385.72028927 1230.34418388 -385.67865971 1227.19933756 -385.6394043 1224.05444336 C-385.51539594 1214.13690326 -385.36504407 1204.22025066 -385.17740631 1194.30370331 C-385.13636551 1192.07850372 -385.09905915 1189.85326305 -385.06219482 1187.62799072 C-385.001649 1184.07833723 -384.92494904 1180.5293724 -384.83579826 1176.9803257 C-384.79020069 1175.04060614 -384.75863654 1173.10057273 -384.72743225 1171.16056824 C-384.67854103 1169.42943535 -384.67854103 1169.42943535 -384.62866211 1167.66333008 C-384.59475624 1166.15190178 -384.59475624 1166.15190178 -384.56016541 1164.60993958 C-384.13671875 1162.09765625 -384.13671875 1162.09765625 -382.91847229 1160.18730164 C-380.38945823 1158.64066321 -379.01149173 1159.50295427 -376.13671875 1160.09765625 C-373.97643708 1160.19632642 -371.81354588 1160.24361755 -369.65104675 1160.25587463 C-368.33997955 1160.26566345 -367.02891235 1160.27545227 -365.67811584 1160.28553772 C-364.23226965 1160.29144119 -362.78642308 1160.29725168 -361.34057617 1160.30297852 C-359.81276182 1160.31256231 -358.28495009 1160.32257268 -356.75714111 1160.33297729 C-352.61502413 1160.35997815 -348.47289581 1160.38101377 -344.33073974 1160.40097928 C-339.99987591 1160.4228686 -335.66904683 1160.45024286 -331.33821106 1160.47703552 C-323.13960017 1160.52692259 -314.94096996 1160.5718762 -306.74232131 1160.61505789 C-295.66175551 1160.67370351 -284.58123545 1160.73996896 -273.50071049 1160.80580807 C-256.04607741 1160.9093204 -238.59140501 1161.00265101 -221.13671875 1161.09765625 C-221.13671875 1124.79765625 -221.13671875 1088.49765625 -221.13671875 1051.09765625 C-217.83671875 1051.09765625 -214.53671875 1051.09765625 -211.13671875 1051.09765625 C-211.13671875 1087.06765625 -211.13671875 1123.03765625 -211.13671875 1160.09765625 C-119.06671875 1160.09765625 -26.99671875 1160.09765625 67.86328125 1160.09765625 C67.86328125 1123.13765625 67.86328125 1086.17765625 67.86328125 1048.09765625 C71.82328125 1048.09765625 75.78328125 1048.09765625 79.86328125 1048.09765625 C79.86328125 1084.72765625 79.86328125 1121.35765625 79.86328125 1159.09765625 C171.93328125 1159.09765625 264.00328125 1159.09765625 358.86328125 1159.09765625 C358.86328125 1121.47765625 358.86328125 1083.85765625 358.86328125 1045.09765625 C362.49328125 1045.09765625 366.12328125 1045.09765625 369.86328125 1045.09765625 C369.86328125 1082.71765625 369.86328125 1120.33765625 369.86328125 1159.09765625 C462.26328125 1159.09765625 554.66328125 1159.09765625 649.86328125 1159.09765625 C649.86328125 1067.02765625 649.86328125 974.95765625 649.86328125 880.09765625 C611.58328125 880.09765625 573.30328125 880.09765625 533.86328125 880.09765625 C533.86328125 876.46765625 533.86328125 872.83765625 533.86328125 869.09765625 C572.47328125 869.09765625 611.08328125 869.09765625 650.86328125 869.09765625 C650.86328125 777.02765625 650.86328125 684.95765625 650.86328125 590.09765625 C611.59328125 590.09765625 572.32328125 590.09765625 531.86328125 590.09765625 C531.86328125 586.79765625 531.86328125 583.49765625 531.86328125 580.09765625 C571.13328125 580.09765625 610.40328125 580.09765625 650.86328125 580.09765625 C650.86328125 487.69765625 650.86328125 395.29765625 650.86328125 300.09765625 C610.60328125 300.09765625 570.34328125 300.09765625 528.86328125 300.09765625 C528.86328125 296.79765625 528.86328125 293.49765625 528.86328125 290.09765625 C568.79328125 290.09765625 608.72328125 290.09765625 649.86328125 290.09765625 C649.86328125 197.69765625 649.86328125 105.29765625 649.86328125 10.09765625 C557.46328125 10.09765625 465.06328125 10.09765625 369.86328125 10.09765625 C369.86328125 36.16765625 369.86328125 62.23765625 369.86328125 89.09765625 C366.23328125 89.09765625 362.60328125 89.09765625 358.86328125 89.09765625 C358.86328125 63.02765625 358.86328125 36.95765625 358.86328125 10.09765625 C266.79328125 10.09765625 174.72328125 10.09765625 79.86328125 10.09765625 C79.86328125 37.81765625 79.86328125 65.53765625 79.86328125 94.09765625 C75.90328125 94.09765625 71.94328125 94.09765625 67.86328125 94.09765625 C67.86328125 66.37765625 67.86328125 38.65765625 67.86328125 10.09765625 C-24.20671875 10.09765625 -116.27671875 10.09765625 -211.13671875 10.09765625 C-211.13671875 39.46765625 -211.13671875 68.83765625 -211.13671875 99.09765625 C-214.76671875 99.09765625 -218.39671875 99.09765625 -222.13671875 99.09765625 C-222.13671875 70.05765625 -222.13671875 41.01765625 -222.13671875 11.09765625 C-314.53671875 11.09765625 -406.93671875 11.09765625 -502.13671875 11.09765625 C-502.13671875 103.16765625 -502.13671875 195.23765625 -502.13671875 290.09765625 C-468.47671875 290.09765625 -434.81671875 290.09765625 -400.13671875 290.09765625 C-400.13671875 293.72765625 -400.13671875 297.35765625 -400.13671875 301.09765625 C-433.46671875 301.09765625 -466.79671875 301.09765625 -501.13671875 301.09765625 C-501.13671875 392.83765625 -501.13671875 484.57765625 -501.13671875 579.09765625 C-466.81671875 579.09765625 -432.49671875 579.09765625 -397.13671875 579.09765625 C-397.13671875 582.72765625 -397.13671875 586.35765625 -397.13671875 590.09765625 C-431.45671875 590.09765625 -465.77671875 590.09765625 -501.13671875 590.09765625 C-501.13671875 682.16765625 -501.13671875 774.23765625 -501.13671875 869.09765625 C-465.82671875 869.09765625 -430.51671875 869.09765625 -394.13671875 869.09765625 C-394.13671875 873.05765625 -394.13671875 877.01765625 -394.13671875 881.09765625 C-429.44671875 881.09765625 -464.75671875 881.09765625 -501.13671875 881.09765625 C-501.13671875 973.49765625 -501.13671875 1065.89765625 -501.13671875 1161.09765625 C-487.05028016 1160.81197313 -487.05028016 1160.81197313 -473.13671875 1159.09765625 C-471.11880335 1160.6110928 -470.26201941 1161.84705492 -469.13671875 1164.09765625 C-469.04326563 1165.90954361 -469.01480583 1167.72492003 -469.01646423 1169.53921509 C-469.01508957 1170.69470352 -469.0137149 1171.85019196 -469.01229858 1173.04069519 C-469.0176915 1174.95148613 -469.0176915 1174.95148613 -469.02319336 1176.90087891 C-469.02347532 1178.25091042 -469.02331732 1179.60094209 -469.02275085 1180.95097351 C-469.02246323 1184.62223895 -469.02835432 1188.29347191 -469.03532481 1191.96472979 C-469.04156416 1195.79910652 -469.04216261 1199.63348396 -469.04335022 1203.46786499 C-469.04646182 1210.73162048 -469.0546729 1217.99536098 -469.06469971 1225.25910985 C-469.07586616 1233.527437 -469.08137264 1241.79576484 -469.08639514 1250.06409764 C-469.09685565 1267.07529253 -469.11445179 1284.08647281 -469.13671875 1301.09765625 C-472.43671875 1301.09765625 -475.73671875 1301.09765625 -479.13671875 1301.09765625 C-479.13671875 1258.19765625 -479.13671875 1215.29765625 -479.13671875 1171.09765625 C-489.69671875 1171.09765625 -500.25671875 1171.09765625 -511.13671875 1171.09765625 C-511.23313518 1092.38885628 -511.32910607 1013.68005579 -511.42272949 934.97125244 C-511.42413923 933.7861979 -511.42554897 932.60114336 -511.42700142 931.38017808 C-511.45771476 905.55967879 -511.48834835 879.73917941 -511.51890102 853.91867994 C-511.53390761 841.23680223 -511.54893162 828.55492455 -511.56396484 815.87304688 C-511.56620711 813.98111874 -511.56620711 813.98111874 -511.56849467 812.05096983 C-511.61311693 774.40694894 -511.65866704 736.76292927 -511.70494322 699.11891038 C-511.7765628 640.84651359 -511.8466086 582.57411508 -511.91382223 524.30171302 C-511.91658726 521.90466723 -511.91935415 519.50762144 -511.9221229 517.11057565 C-512.04622828 409.65918845 -512.15796592 302.20783966 -512.13671875 1.09765625 C-424.3570069 0.68227212 -336.57672519 0.34328238 0 0 Z " fill="#020202" transform="translate(646.13671875,68.90234375)"/>
<path d="M0 0 C3.96 0 7.92 0 12 0 C12 46.53 12 93.06 12 141 C46.65 141 81.3 141 117 141 C117 144.3 117 147.6 117 151 C82.68 151 48.36 151 13 151 C13 187.3 13 223.6 13 261 C9.04 261 5.08 261 1 261 C1 224.7 1 188.4 1 151 C-38.93 151 -78.86 151 -120 151 C-120 147.7 -120 144.4 -120 141 C-80.4 141 -40.8 141 0 141 C0 94.47 0 47.94 0 0 Z " fill="#000000" transform="translate(714,218)"/>
<path d="M0 0 C3.96 0 7.92 0 12 0 C12 48.18 12 96.36 12 146 C45.99 146 79.98 146 115 146 C115 149.3 115 152.6 115 156 C81.01 156 47.02 156 12 156 C12 193.29 12 230.58 12 269 C8.37 269 4.74 269 1 269 C1 231.71 1 194.42 1 156 C-38.6 156 -78.2 156 -119 156 C-119 152.7 -119 149.4 -119 146 C-79.73 146 -40.46 146 0 146 C0 97.82 0 49.64 0 0 Z " fill="#090909" transform="translate(1005,213)"/>
<path d="M0 0 C3.63 0 7.26 0 11 0 C11 44.88 11 89.76 11 136 C45.32 136 79.64 136 115 136 C115 139.3 115 142.6 115 146 C81.01 146 47.02 146 12 146 C12 181.64 12 217.28 12 254 C8.04 254 4.08 254 0 254 C0 218.69 0 183.38 0 147 C-40.59 147 -81.18 147 -123 147 C-123 143.37 -123 139.74 -123 136 C-82.41 136 -41.82 136 0 136 C0 91.12 0 46.24 0 0 Z " fill="#080808" transform="translate(424,223)"/>
<path d="M0 0 C3.63 0 7.26 0 11 0 C11 37.95 11 75.9 11 115 C48.95 115 86.9 115 126 115 C126 118.3 126 121.6 126 125 C87.72 125 49.44 125 10 125 C10 163.28 10 201.56 10 241 C6.37 241 2.74 241 -1 241 C-1 203.05 -1 165.1 -1 126 C-39.61 126 -78.22 126 -118 126 C-118 122.04 -118 118.08 -118 114 C-79.06 114 -40.12 114 0 114 C0 76.38 0 38.76 0 0 Z " fill="#080808" transform="translate(425,824)"/>
<path d="M0 0 C3.96 0 7.92 0 12 0 C12 36.96 12 73.92 12 112 C47.64 112 83.28 112 120 112 C120 115.63 120 119.26 120 123 C84.36 123 48.72 123 12 123 C12 159.63 12 196.26 12 234 C8.04 234 4.08 234 0 234 C0 197.37 0 160.74 0 123 C-35.64 123 -71.28 123 -108 123 C-108 119.37 -108 115.74 -108 112 C-72.36 112 -36.72 112 0 112 C0 75.04 0 38.08 0 0 Z " fill="#080808" transform="translate(1005,826)"/>
<path d="M0 0 C3.63 0 7.26 0 11 0 C11 38.94 11 77.88 11 118 C46.97 118 82.94 118 120 118 C120 121.3 120 124.6 120 128 C84.03 128 48.06 128 11 128 C11 164.63 11 201.26 11 239 C7.04 239 3.08 239 -1 239 C-1 202.37 -1 165.74 -1 128 C-40.6 128 -80.2 128 -121 128 C-121 124.37 -121 120.74 -121 117 C-81.07 117 -41.14 117 0 117 C0 78.39 0 39.78 0 0 Z " fill="#080808" transform="translate(425,531)"/>
<path d="M0 0 C3.96 0 7.92 0 12 0 C12 36.96 12 73.92 12 112 C46.32 112 80.64 112 116 112 C116 115.3 116 118.6 116 122 C81.68 122 47.36 122 12 122 C12 159.29 12 196.58 12 235 C7.71 235 3.42 235 -1 235 C-1 197.71 -1 160.42 -1 122 C-38.62 122 -76.24 122 -115 122 C-115 118.7 -115 115.4 -115 112 C-77.05 112 -39.1 112 0 112 C0 75.04 0 38.08 0 0 Z " fill="#0B0B0B" transform="translate(1006,537)"/>
<path d="M0 0 C3.63 0 7.26 0 11 0 C11 36.96 11 73.92 11 112 C49.28 112 87.56 112 127 112 C127 115.63 127 119.26 127 123 C88.72 123 50.44 123 11 123 C11 160.29 11 197.58 11 236 C7.04 236 3.08 236 -1 236 C-1 198.71 -1 161.42 -1 123 C-36.64 123 -72.28 123 -109 123 C-109 119.7 -109 116.4 -109 113 C-73.03 113 -37.06 113 0 113 C0 75.71 0 38.42 0 0 Z " fill="#000000" transform="translate(715,826)"/>
<path d="M0 0 C3.96 0 7.92 0 12 0 C12 37.95 12 75.9 12 115 C47.97 115 83.94 115 121 115 C121 118.3 121 121.6 121 125 C84.7 125 48.4 125 11 125 C11 161.96 11 198.92 11 237 C7.37 237 3.74 237 0 237 C0 200.04 0 163.08 0 125 C-37.95 125 -75.9 125 -115 125 C-115 121.7 -115 118.4 -115 115 C-77.05 115 -39.1 115 0 115 C0 77.05 0 39.1 0 0 Z " fill="#000000" transform="translate(715,534)"/>
<path d="M0 0 C5.94 0 11.88 0 18 0 C18 17.49 18 34.98 18 53 C21.3 53 24.6 53 28 53 C28 57.62 28 62.24 28 67 C24.7 67 21.4 67 18 67 C18 72.61 18 78.22 18 84 C12.39 84 6.78 84 1 84 C1 78.39 1 72.78 1 67 C-11.21 67 -23.42 67 -36 67 C-36 52 -36 52 -33.98046875 48.21875 C-33.05878906 47.3215625 -32.13710937 46.424375 -31.1875 45.5 C-30.16606969 44.43529155 -29.14928853 43.36610733 -28.13671875 42.29296875 C-27.61384277 41.75591309 -27.0909668 41.21885742 -26.55224609 40.66552734 C-23.96523435 37.88971827 -21.73069617 34.87733523 -19.5 31.8125 C-19.05293701 31.20027588 -18.60587402 30.58805176 -18.14526367 29.95727539 C-11.34063682 20.46587446 -5.2207182 10.4414364 0 0 Z " fill="#13D249" transform="translate(1223,1257)"/>
<path d="M0 0 C5.94 0 11.88 0 18 0 C18 17.16 18 34.32 18 52 C21.3 52 24.6 52 28 52 C28 56.62 28 61.24 28 66 C24.7 66 21.4 66 18 66 C18 71.61 18 77.22 18 83 C12.39 83 6.78 83 1 83 C1 77.39 1 71.78 1 66 C-11.21 66 -23.42 66 -36 66 C-36 51 -36 51 -32.8984375 46.5703125 C-31.60979315 45.36848482 -30.31031095 44.17816775 -29 43 C-27.90022774 41.68820778 -26.8293376 40.35164532 -25.7890625 38.9921875 C-25.27102051 38.32276123 -24.75297852 37.65333496 -24.21923828 36.96362305 C-19.66042667 30.99109114 -15.19129822 25.00909346 -11.125 18.6875 C-10.75769775 18.12708008 -10.39039551 17.56666016 -10.01196289 16.98925781 C-8.23188125 14.20770265 -6.79924572 11.51808324 -5.52734375 8.46484375 C-4.0625 5.125 -4.0625 5.125 0 0 Z " fill="#15D24A" transform="translate(76,201)"/>
<path d="M0 0 C4.61833743 4.2681766 6.58384484 8.23727974 7.109375 14.60546875 C7.10421875 15.68828125 7.0990625 16.77109375 7.09375 17.88671875 C7.10148438 19.5109375 7.10148438 19.5109375 7.109375 21.16796875 C6.34367235 30.44648321 0.79582901 36.90907347 -5.90625 42.94921875 C-9.98784409 46.37839429 -14.33507485 49.42931747 -18.6640625 52.53515625 C-23.0075959 55.76217009 -25.69410039 58.46241953 -28.15625 63.38671875 C-16.27625 63.38671875 -4.39625 63.38671875 7.84375 63.38671875 C7.84375 68.66671875 7.84375 73.94671875 7.84375 79.38671875 C-10.96625 79.38671875 -29.77625 79.38671875 -49.15625 79.38671875 C-49.15625 66.2778146 -48.82254897 59.14436591 -39.6171875 49.73046875 C-34.43330368 44.79343654 -29.18796109 40.13518188 -23.46875 35.82421875 C-22.02220629 34.68982395 -20.58412334 33.54452616 -19.15625 32.38671875 C-18.52976562 31.88011719 -17.90328125 31.37351562 -17.2578125 30.8515625 C-14.27629914 28.00302743 -13.24824419 26.23049339 -12.79296875 22.0546875 C-12.78241738 18.80838385 -12.89357489 15.62151408 -13.15625 12.38671875 C-13.94 12.07734375 -14.72375 11.76796875 -15.53125 11.44921875 C-18.15625 10.38671875 -18.15625 10.38671875 -20.15625 9.38671875 C-27.82067946 8.37911057 -35.14414203 10.35775796 -41.32421875 15.0234375 C-43.15625 16.38671875 -43.15625 16.38671875 -45.15625 16.38671875 C-45.15625 11.10671875 -45.15625 5.82671875 -45.15625 0.38671875 C-31.17946254 -6.18068741 -13.54902301 -10.13722192 0 0 Z " fill="#17D24C" transform="translate(604.15625,1261.61328125)"/>
<path d="M0 0 C5.44960306 5.340611 7.40763767 9.95160833 7.7109375 17.60546875 C7.30419494 27.04849191 3.3451244 34.12479468 -2.8515625 41.10546875 C-5.8948287 43.71616707 -9.12140579 46.00873591 -12.4140625 48.29296875 C-22.28508102 54.51713597 -22.28508102 54.51713597 -27.8515625 64.10546875 C-16.3015625 64.10546875 -4.7515625 64.10546875 7.1484375 64.10546875 C7.1484375 69.05546875 7.1484375 74.00546875 7.1484375 79.10546875 C-11.3315625 79.10546875 -29.8115625 79.10546875 -48.8515625 79.10546875 C-48.8515625 65.97601401 -47.2958502 57.53481943 -38.4140625 47.98046875 C-33.82088547 43.77608427 -28.67076454 40.14860867 -23.57446289 36.57958984 C-18.37420421 32.84739499 -13.66803951 28.86018867 -12.2578125 22.375 C-12.28875 21.56417969 -12.3196875 20.75335937 -12.3515625 19.91796875 C-12.361875 19.09941406 -12.3721875 18.28085937 -12.3828125 17.4375 C-12.93835984 14.67365197 -14.10337887 13.27675002 -15.8515625 11.10546875 C-15.8515625 10.44546875 -15.8515625 9.78546875 -15.8515625 9.10546875 C-25.42281537 9.2346513 -32.77424811 9.46890806 -40.8515625 15.10546875 C-42.8315625 16.09546875 -42.8315625 16.09546875 -44.8515625 17.10546875 C-44.8515625 11.82546875 -44.8515625 6.54546875 -44.8515625 1.10546875 C-31.99805297 -6.03536988 -12.43115799 -9.58155408 0 0 Z " fill="#12D148" transform="translate(79.8515625,795.89453125)"/>
<path d="M0 0 C4.70371601 5.03969573 6.83884337 9.42139394 7.125 16.375 C6.86446663 22.8613825 4.94363617 26.55488057 0.25 31.125 C-2.55680764 32.92937634 -5.17008337 33.91810466 -8.375 34.8125 C-8.375 35.4725 -8.375 36.1325 -8.375 36.8125 C-7.55 36.85375 -6.725 36.895 -5.875 36.9375 C-0.36631598 38.314671 3.65339008 41.84089008 7.625 45.8125 C9.72198204 54.20042818 9.52450006 61.90875204 5.32421875 69.5390625 C2.49419305 73.32544172 -1.09841973 75.84238999 -5.375 77.8125 C-6.365 77.8125 -7.355 77.8125 -8.375 77.8125 C-8.375 78.4725 -8.375 79.1325 -8.375 79.8125 C-13.65731275 80.9887044 -18.73319676 81.03374372 -24.125 81.0625 C-25.07632813 81.083125 -26.02765625 81.10375 -27.0078125 81.125 C-33.43799222 81.16023386 -38.38186498 80.15549517 -44.375 77.8125 C-44.375 72.5325 -44.375 67.2525 -44.375 61.8125 C-42.725 62.4725 -41.075 63.1325 -39.375 63.8125 C-34.75727687 65.60123341 -30.82758618 66.13716884 -25.875 66.1875 C-24.6065625 66.21585938 -23.338125 66.24421875 -22.03125 66.2734375 C-17.77586628 65.73696818 -15.64711002 64.5425436 -12.375 61.8125 C-11.41429566 58.93038698 -11.26918117 57.11399956 -11.3125 54.125 C-11.32152344 53.31675781 -11.33054687 52.50851562 -11.33984375 51.67578125 C-11.35144531 51.06089844 -11.36304688 50.44601562 -11.375 49.8125 C-19.33876216 44.83973607 -26.03840005 44.08710588 -35.375 43.8125 C-35.375 39.1925 -35.375 34.5725 -35.375 29.8125 C-33.35375 29.709375 -31.3325 29.60625 -29.25 29.5 C-23.18261675 29.03784894 -18.79140027 28.22890027 -14.375 23.8125 C-13.94129011 21.25185877 -13.94129011 21.25185877 -13.9375 18.375 C-13.89753906 17.40691406 -13.85757813 16.43882813 -13.81640625 15.44140625 C-14.13125985 12.64536989 -14.13125985 12.64536989 -16.51171875 10.9921875 C-22.38022791 8.5743297 -29.20976752 8.8095251 -35.22265625 10.71484375 C-37.32013168 11.64890175 -39.35669471 12.71782594 -41.375 13.8125 C-41.375 8.8625 -41.375 3.9125 -41.375 -1.1875 C-29.07952897 -6.84341667 -11.50458964 -8.45002117 0 0 Z " fill="#14D24A" transform="translate(902.375,1261.1875)"/>
<path d="M0 0 C0.92506348 0.01353516 1.85012695 0.02707031 2.80322266 0.04101562 C10.54200684 0.27622872 16.84191638 1.00720721 22.66796875 6.4765625 C27.69905822 11.99971462 28.86499946 15.22504603 28.77734375 22.67578125 C28.3739579 27.97847161 26.64238151 31.25398287 23.125 35.3125 C19.80826797 38.14385661 17.94623529 39.5 13.5625 39.5 C13.5625 40.16 13.5625 40.82 13.5625 41.5 C15.8725 41.83 18.1825 42.16 20.5625 42.5 C20.5625 43.16 20.5625 43.82 20.5625 44.5 C21.305 44.726875 22.0475 44.95375 22.8125 45.1875 C26.12015809 46.766155 27.51108409 48.49614099 29.5625 51.5 C31.54394474 57.44433421 31.68732927 65.4091332 29.5625 71.375 C24.93798439 78.60080564 18.49622896 83.12660752 10.15332031 85.05761719 C5.88261917 85.78683981 1.63580446 85.72574584 -2.6875 85.75 C-3.59113281 85.770625 -4.49476562 85.79125 -5.42578125 85.8125 C-11.72105379 85.84873178 -16.56488612 84.77713599 -22.4375 82.5 C-22.4375 77.22 -22.4375 71.94 -22.4375 66.5 C-15.4375 68.5 -15.4375 68.5 -13.5 69.609375 C-10.24588178 71.01456241 -6.91977199 70.78785078 -3.4375 70.75 C-2.7259375 70.75773438 -2.014375 70.76546875 -1.28125 70.7734375 C2.47198646 70.75943289 5.43125023 70.68123467 8.5625 68.5 C10.82633699 65.67020376 11.53698026 63.64035856 12.1875 60.0625 C11.40388856 55.59591479 9.84633123 54.37663077 6.38671875 51.6640625 C2.47662339 49.16896953 -1.63743132 49.19309448 -6.125 48.9375 C-6.82689453 48.89431641 -7.52878906 48.85113281 -8.25195312 48.80664062 C-9.98025206 48.7008264 -11.7088511 48.59993419 -13.4375 48.5 C-13.4375 44.21 -13.4375 39.92 -13.4375 35.5 C-11.41625 35.396875 -9.395 35.29375 -7.3125 35.1875 C-1.29495839 34.71656196 2.86257719 33.92993053 7.4375 29.8125 C9.20041237 26.18873568 8.94516172 23.51794804 8.5625 19.5 C6.75086733 16.82568511 5.68488923 16.54079641 2.5625 15.5 C-4.42088646 15.0077285 -10.68729798 15.72945521 -17.4375 17.5 C-17.4375 18.16 -17.4375 18.82 -17.4375 19.5 C-18.0975 19.5 -18.7575 19.5 -19.4375 19.5 C-19.4375 14.55 -19.4375 9.6 -19.4375 4.5 C-12.68946768 1.04719971 -7.54775892 -0.15916016 0 0 Z " fill="#13D249" transform="translate(74.4375,487.5)"/>
<path d="M0 0 C0 28.38 0 56.76 0 86 C-6.6 86 -13.2 86 -20 86 C-20 65.21 -20 44.42 -20 23 C-25.94 25.475 -25.94 25.475 -32 28 C-33.65 28 -35.3 28 -37 28 C-37 22.72 -37 17.44 -37 12 C-34.710625 11.13375 -32.42125 10.2675 -30.0625 9.375 C-25.36670516 7.56973782 -21.36034193 5.76541953 -17.375 2.625 C-13 0 -13 0 0 0 Z " fill="#1CD34F" transform="translate(332,1255)"/>
<path d="M0 0 C0 28.05 0 56.1 0 85 C-6.27 85 -12.54 85 -19 85 C-19 64.21 -19 43.42 -19 22 C-23.8265602 24.06182575 -23.8265602 24.06182575 -28.625 26.1875 C-31 27 -31 27 -36 27 C-36 22.05 -36 17.1 -36 12 C-33.1228125 10.9790625 -33.1228125 10.9790625 -30.1875 9.9375 C-24.46383483 7.7818339 -19.90766018 5.14113427 -15.12109375 1.35546875 C-12 0 -12 0 0 0 Z " fill="#13D249" transform="translate(94,1085)"/>
<path d="M0 0 C0.33 0 0.66 0 1 0 C1 9.24 1 18.48 1 28 C-5.27 28 -11.54 28 -18 28 C-15.7522988 22.38074701 -15.7522988 22.38074701 -13.57421875 19.51171875 C-13.10935059 18.89111572 -12.64448242 18.2705127 -12.16552734 17.63110352 C-11.67777832 16.98971436 -11.1900293 16.3483252 -10.6875 15.6875 C-7.59685287 11.56211426 -4.55434974 7.47275709 -1.875 3.0625 C-1.25625 2.051875 -0.6375 1.04125 0 0 Z " fill="#F8FDF9" transform="translate(1223,1282)"/>
<path d="M0 0 C0.33 0 0.66 0 1 0 C1 8.58 1 17.16 1 26 C-4.94 26 -10.88 26 -17 26 C-15.22606976 21.56517439 -13.62538017 18.94691736 -10.75 15.25 C-7.32880372 10.79140871 -4.11687087 6.2830977 -1.09375 1.546875 C-0.7328125 1.03640625 -0.371875 0.5259375 0 0 Z " fill="#F6FDF8" transform="translate(75,227)"/>
<path d="M0 0 C0.33 0 0.66 0 1 0 C1 9.24 1 18.48 1 28 C-5.27 28 -11.54 28 -18 28 C-17.67 27.34 -17.34 26.68 -17 26 C-11.39 26.33 -5.78 26.66 0 27 C-0.33 20.07 -0.66 13.14 -1 6 C-1.99 6.66 -2.98 7.32 -4 8 C-2.87548273 5.0280615 -1.77706209 2.66559313 0 0 Z " fill="#CBF5D7" transform="translate(1223,1282)"/>
<path d="M0 0 C0.66 0.33 1.32 0.66 2 1 C1.34 1.66 0.68 2.32 0 3 C-0.46290221 5.66242821 -0.46290221 5.66242821 -0.625 8.625 C-0.69976563 9.62789062 -0.77453125 10.63078125 -0.8515625 11.6640625 C-0.90054688 12.43492188 -0.94953125 13.20578125 -1 14 C-0.34 14.33 0.32 14.66 1 15 C-0.98 15.99 -0.98 15.99 -3 17 C-3.08076963 14.54101345 -3.14037143 12.08466258 -3.1875 9.625 C-3.21263672 8.92632813 -3.23777344 8.22765625 -3.26367188 7.5078125 C-3.29296875 5.4765625 -3.29296875 5.4765625 -3 2 C-2.01 1.34 -1.02 0.68 0 0 Z " fill="#38D966" transform="translate(864,1258)"/>
<path d="M0 0 C0.66 0.33 1.32 0.66 2 1 C-0.97 3.97 -3.94 6.94 -7 10 C-7.33 9.34 -7.66 8.68 -8 8 C-5.33333333 5.33333333 -2.66666667 2.66666667 0 0 Z " fill="#D7F7E0" transform="translate(585,1313)"/>
</svg>
